<svg width="63" height="25" viewBox="0 0 63 25" fill="none" xmlns="http://www.w3.org/2000/svg">
<path d="M1.49491 14.0625H57.8962L49.9836 22.3328C49.3999 22.943 49.3999 23.932 49.9836 24.5422C50.5674 25.1523 51.514 25.1523 52.0978 24.5422L62.5622 13.6047C63.1459 12.9945 63.1459 12.0051 62.5622 11.3953L52.0978 0.457813C51.8059 0.152735 51.4232 0 51.0405 0C50.6582 0 50.2755 0.152735 49.9836 0.457813C49.3999 1.06797 49.3999 2.05742 49.9836 2.66719L57.8962 10.9375H1.49491C0.669345 10.9375 0 11.6371 0 12.5C0 13.3629 0.669345 14.0625 1.49491 14.0625Z" fill="#3E4348"/>
</svg>
