<svg width="63" height="25" viewBox="0 0 63 25" fill="none" xmlns="http://www.w3.org/2000/svg">
<g clip-path="url(#clip0)">
<path d="M61.5051 10.9375L5.10381 10.9375L13.0164 2.66718C13.6001 2.05703 13.6001 1.06796 13.0164 0.457807C12.4326 -0.15235 11.486 -0.15235 10.9022 0.457807L0.437829 11.3953C-0.145934 12.0055 -0.145934 12.9949 0.437829 13.6047L10.9022 24.5422C11.1941 24.8473 11.5768 25 11.9595 25C12.3418 25 12.7245 24.8473 13.0164 24.5422C13.6001 23.932 13.6001 22.9426 13.0164 22.3328L5.10381 14.0625L61.5051 14.0625C62.3307 14.0625 63 13.3629 63 12.5C63 11.6371 62.3307 10.9375 61.5051 10.9375Z" fill="#E6E9EF"/>
</g>
<defs>
<clipPath id="clip0">
<rect width="63" height="25" fill="white" transform="translate(63 25) rotate(-180)"/>
</clipPath>
</defs>
</svg>
