<svg width="24" height="34" viewBox="0 0 24 34" fill="none" xmlns="http://www.w3.org/2000/svg">
<path d="M19.1468 0H0.693317C0.310038 0 0 0.310052 0 0.693317V27.818C0 28.2012 0.310038 28.5113 0.693317 28.5113H2.86054V32.5859C2.86054 32.8669 3.03055 33.1201 3.29054 33.2271C3.55053 33.3347 3.84908 33.2738 4.04681 33.0734L5.52621 31.5784L7.00561 33.0734C7.20182 33.2726 7.50175 33.3344 7.76188 33.2271C8.02188 33.1201 8.19181 32.8669 8.19181 32.5859V28.5113H19.1468C21.8225 28.5113 24 26.3339 24 23.6581V4.85322C24 2.17743 21.8225 0 19.1468 0ZM1.38663 1.38663H4.83289V27.1247C4.54766 27.1247 1.31542 27.1247 1.38663 27.1247V1.38663ZM6.80517 30.8994L6.01909 30.1051C5.88909 29.9731 5.71105 29.8993 5.52621 29.8993C5.34137 29.8993 5.16326 29.9731 5.03326 30.1051L4.24718 30.8994V28.5113H6.80517V30.8994ZM22.6134 23.6581C22.6134 25.5695 21.0581 27.1247 19.1468 27.1247C14.0667 27.1247 8.30295 27.1247 6.21953 27.1247V1.38663H19.1468C21.0581 1.38663 22.6134 2.94182 22.6134 4.85322V23.6581Z" fill="#3E4348"/>
<path d="M18.2442 8.09556C18.0303 8.09556 17.8163 8.11518 17.6044 8.1538C16.7926 7.35961 15.7045 6.91138 14.5583 6.91138C12.8913 6.91138 11.4153 7.81123 10.6645 9.2439C8.61162 9.19038 6.97852 10.8323 6.97852 12.8601C6.97852 14.3151 7.84856 15.6083 9.15054 16.171V20.907C9.15054 21.2903 9.46066 21.6003 9.84386 21.6003H18.9931C19.3763 21.6003 19.6864 21.2903 19.6864 20.907V15.0206C20.9857 14.4553 21.8543 13.1627 21.8543 11.7111C21.8543 9.71786 20.2348 8.09556 18.2442 8.09556ZM10.5372 20.2137V18.4845H18.2998V20.2137H10.5372ZM18.8157 13.8595C18.5117 13.94 18.2998 14.2149 18.2998 14.5298V17.0979H10.5372V15.6787C10.5372 15.3632 10.3246 15.0877 10.0192 15.0078C9.04557 14.7532 8.36515 13.8696 8.36515 12.8601C8.36515 11.6509 9.3733 10.6292 10.5663 10.6292C10.697 10.6292 10.8283 10.642 10.957 10.6671C11.2873 10.7307 11.6192 10.5473 11.7383 10.2311C12.1811 9.05699 13.2881 8.29801 14.5583 8.29801C15.4541 8.29801 16.2645 8.6785 16.8414 9.36849C17.0221 9.58446 17.3159 9.66974 17.5814 9.58516C17.7981 9.51672 18.0215 9.4822 18.2442 9.4822C19.4704 9.4822 20.4677 10.4822 20.4677 11.7111C20.4677 12.7186 19.7887 13.6022 18.8157 13.8595Z" fill="#3E4348"/>
</svg>
