<svg width="24" height="24" viewBox="0 0 24 24" fill="none" xmlns="http://www.w3.org/2000/svg">
<path fill-rule="evenodd" clip-rule="evenodd" d="M0 1C0 0.447715 0.447715 0 1 0H5.54545C6.09774 0 6.54545 0.447715 6.54545 1V5.54545C6.54545 6.09774 6.09774 6.54545 5.54545 6.54545H1C0.447715 6.54545 0 6.09774 0 5.54545V1ZM8.72736 1C8.72736 0.447715 9.17507 0 9.72736 0H14.2728C14.8251 0 15.2728 0.447715 15.2728 1V5.54545C15.2728 6.09774 14.8251 6.54545 14.2728 6.54545H9.72736C9.17507 6.54545 8.72736 6.09774 8.72736 5.54545V1ZM18.4545 0C17.9022 0 17.4545 0.447715 17.4545 1V5.54545C17.4545 6.09774 17.9022 6.54545 18.4545 6.54545H23C23.5523 6.54545 24 6.09774 24 5.54545V1C24 0.447715 23.5523 0 23 0H18.4545ZM0 9.72736C0 9.17507 0.447715 8.72736 1 8.72736H5.54545C6.09774 8.72736 6.54545 9.17507 6.54545 9.72736V14.2728C6.54545 14.8251 6.09774 15.2728 5.54545 15.2728H1C0.447715 15.2728 0 14.8251 0 14.2728V9.72736ZM9.72736 8.72736C9.17507 8.72736 8.72736 9.17507 8.72736 9.72736V14.2728C8.72736 14.8251 9.17507 15.2728 9.72736 15.2728H14.2728C14.8251 15.2728 15.2728 14.8251 15.2728 14.2728V9.72736C15.2728 9.17507 14.8251 8.72736 14.2728 8.72736H9.72736ZM17.4545 9.72736C17.4545 9.17507 17.9022 8.72736 18.4545 8.72736H23C23.5523 8.72736 24 9.17507 24 9.72736V14.2728C24 14.8251 23.5523 15.2728 23 15.2728H18.4545C17.9022 15.2728 17.4545 14.8251 17.4545 14.2728V9.72736ZM1 17.4545C0.447715 17.4545 0 17.9022 0 18.4545V23C0 23.5523 0.447715 24 1 24H5.54545C6.09774 24 6.54545 23.5523 6.54545 23V18.4545C6.54545 17.9022 6.09774 17.4545 5.54545 17.4545H1ZM8.72736 18.4545C8.72736 17.9022 9.17507 17.4545 9.72736 17.4545H14.2728C14.8251 17.4545 15.2728 17.9022 15.2728 18.4545V23C15.2728 23.5523 14.8251 24 14.2728 24H9.72736C9.17507 24 8.72736 23.5523 8.72736 23V18.4545ZM18.4545 17.4545C17.9022 17.4545 17.4545 17.9022 17.4545 18.4545V23C17.4545 23.5523 17.9022 24 18.4545 24H23C23.5523 24 24 23.5523 24 23V18.4545C24 17.9022 23.5523 17.4545 23 17.4545H18.4545Z" fill="#7F8893"/>
<mask id="mask0" mask-type="alpha" maskUnits="userSpaceOnUse" x="0" y="0" width="24" height="24">
<path fill-rule="evenodd" clip-rule="evenodd" d="M0 1C0 0.447715 0.447715 0 1 0H5.54545C6.09774 0 6.54545 0.447715 6.54545 1V5.54545C6.54545 6.09774 6.09774 6.54545 5.54545 6.54545H1C0.447715 6.54545 0 6.09774 0 5.54545V1ZM8.72736 1C8.72736 0.447715 9.17507 0 9.72736 0H14.2728C14.8251 0 15.2728 0.447715 15.2728 1V5.54545C15.2728 6.09774 14.8251 6.54545 14.2728 6.54545H9.72736C9.17507 6.54545 8.72736 6.09774 8.72736 5.54545V1ZM18.4545 0C17.9022 0 17.4545 0.447715 17.4545 1V5.54545C17.4545 6.09774 17.9022 6.54545 18.4545 6.54545H23C23.5523 6.54545 24 6.09774 24 5.54545V1C24 0.447715 23.5523 0 23 0H18.4545ZM0 9.72736C0 9.17507 0.447715 8.72736 1 8.72736H5.54545C6.09774 8.72736 6.54545 9.17507 6.54545 9.72736V14.2728C6.54545 14.8251 6.09774 15.2728 5.54545 15.2728H1C0.447715 15.2728 0 14.8251 0 14.2728V9.72736ZM9.72736 8.72736C9.17507 8.72736 8.72736 9.17507 8.72736 9.72736V14.2728C8.72736 14.8251 9.17507 15.2728 9.72736 15.2728H14.2728C14.8251 15.2728 15.2728 14.8251 15.2728 14.2728V9.72736C15.2728 9.17507 14.8251 8.72736 14.2728 8.72736H9.72736ZM17.4545 9.72736C17.4545 9.17507 17.9022 8.72736 18.4545 8.72736H23C23.5523 8.72736 24 9.17507 24 9.72736V14.2728C24 14.8251 23.5523 15.2728 23 15.2728H18.4545C17.9022 15.2728 17.4545 14.8251 17.4545 14.2728V9.72736ZM1 17.4545C0.447715 17.4545 0 17.9022 0 18.4545V23C0 23.5523 0.447715 24 1 24H5.54545C6.09774 24 6.54545 23.5523 6.54545 23V18.4545C6.54545 17.9022 6.09774 17.4545 5.54545 17.4545H1ZM8.72736 18.4545C8.72736 17.9022 9.17507 17.4545 9.72736 17.4545H14.2728C14.8251 17.4545 15.2728 17.9022 15.2728 18.4545V23C15.2728 23.5523 14.8251 24 14.2728 24H9.72736C9.17507 24 8.72736 23.5523 8.72736 23V18.4545ZM18.4545 17.4545C17.9022 17.4545 17.4545 17.9022 17.4545 18.4545V23C17.4545 23.5523 17.9022 24 18.4545 24H23C23.5523 24 24 23.5523 24 23V18.4545C24 17.9022 23.5523 17.4545 23 17.4545H18.4545Z" fill="white"/>
</mask>
<g mask="url(#mask0)">
<rect x="-2.18188" y="-4.36353" width="28.3636" height="30.5455" fill="#7F8893"/>
</g>
</svg>
