<svg width="42" height="41" viewBox="0 0 42 41" fill="none" xmlns="http://www.w3.org/2000/svg">
<path d="M36.1981 4.48962H6.73896C6.0305 4.48962 5.45813 5.062 5.45813 5.77046V35.2296C5.45813 35.938 6.0305 36.5104 6.73896 36.5104H36.1981C36.9065 36.5104 37.4789 35.938 37.4789 35.2296V5.77046C37.4789 5.062 36.9065 4.48962 36.1981 4.48962ZM14.9563 31.7753H10.2052V16.4934H14.9563V31.7753ZM12.5828 14.4041C12.0381 14.4041 11.5057 14.2425 11.0528 13.94C10.6 13.6374 10.247 13.2073 10.0386 12.7041C9.83016 12.2009 9.77562 11.6472 9.88188 11.113C9.98813 10.5789 10.2504 10.0882 10.6355 9.70305C11.0207 9.31792 11.5113 9.05565 12.0455 8.9494C12.5797 8.84314 13.1334 8.89768 13.6366 9.1061C14.1398 9.31453 14.5699 9.66749 14.8724 10.1203C15.175 10.5732 15.3365 11.1056 15.3365 11.6503C15.3325 13.1713 14.0997 14.4041 12.5828 14.4041ZM32.7438 31.7753H27.9968V24.3425C27.9968 22.5694 27.9647 20.2919 25.5272 20.2919C23.0576 20.2919 22.6773 22.2211 22.6773 24.2144V31.7753H17.9342V16.4934H22.4892V18.5828H22.5532C23.1856 17.382 24.7346 16.1132 27.0481 16.1132C31.8593 16.1132 32.7438 19.2792 32.7438 23.3939V31.7753Z" fill="#7F8893"/>
</svg>
