<svg width="41" height="41" viewBox="0 0 41 41" fill="none" xmlns="http://www.w3.org/2000/svg">
<path d="M37.145 10.1854C35.9202 10.7137 34.5873 11.0939 33.2144 11.242C34.6398 10.3952 35.7072 9.05742 36.2164 7.4796C34.8788 8.27527 33.4136 8.83321 31.8855 9.12867C31.2469 8.44593 30.4745 7.90203 29.6165 7.53086C28.7585 7.15969 27.8332 6.9692 26.8983 6.97127C23.1159 6.97127 20.0739 10.0373 20.0739 13.7997C20.0739 14.328 20.1379 14.8564 20.242 15.3647C14.5783 15.0685 9.52705 12.3628 6.16887 8.22008C5.55697 9.26522 5.23632 10.4552 5.24026 11.6663C5.24026 14.0359 6.44505 16.1252 8.28224 17.354C7.19955 17.3114 6.14222 17.0138 5.19624 16.4854V16.5695C5.19624 19.8876 7.54176 22.6374 10.6678 23.2698C10.0808 23.4223 9.47704 23.5003 8.87062 23.502C8.42633 23.502 8.00606 23.458 7.58178 23.3979C8.44634 26.1037 10.964 28.069 13.9619 28.133C11.6164 29.9702 8.67849 31.0509 5.48843 31.0509C4.91605 31.0509 4.38771 31.0309 3.83936 30.9668C6.86532 32.9081 10.4556 34.0288 14.3222 34.0288C26.8743 34.0288 33.7428 23.6301 33.7428 14.6042C33.7428 14.308 33.7428 14.0118 33.7227 13.7156C35.0516 12.743 36.2164 11.5382 37.145 10.1854Z" fill="#7F8893"/>
</svg>
